<svg width="315" height="73" viewBox="0 0 315 73" fill="none" xmlns="http://www.w3.org/2000/svg">
<path d="M50.6429 69.5C50.6429 70.7381 50.3095 71.619 49.6429 72.1429C49.0238 72.6667 48.119 72.9286 46.9286 72.9286C45.3095 72.9286 44.2381 72.119 43.7143 70.5L38.5714 55.0714H12.6429L7.5 70.5C6.97619 72.119 5.90476 72.9286 4.28571 72.9286C3.09524 72.9286 2.16667 72.6667 1.5 72.1429C0.880952 71.619 0.571428 70.7381 0.571428 69.5C0.571428 69.0714 0.642857 68.6429 0.785714 68.2143L22.2857 3.92857C22.5238 3.11905 22.9048 2.40476 23.4286 1.78572C23.9524 1.16667 24.6905 0.857143 25.6429 0.857143C26.5952 0.857143 27.3333 1.16667 27.8571 1.78572C28.381 2.40476 28.7619 3.11905 29 3.92857L50.4286 68.2143C50.5714 68.6429 50.6429 69.0714 50.6429 69.5ZM25.6429 16.2857L15.0714 47.7857H36.1429L25.6429 16.2857ZM100.115 69.4286C100.115 71.8095 98.9245 73 96.5435 73H67.9721C65.5911 73 64.4007 71.8095 64.4007 69.4286V5.14286C64.4007 2.7619 65.5911 1.57143 67.9721 1.57143C70.3531 1.57143 71.5435 2.7619 71.5435 5.14286V65.8571H96.5435C98.9245 65.8571 100.115 67.0476 100.115 69.4286ZM157.258 5.14286C157.258 7.52381 156.067 8.71429 153.686 8.71429H139.401V69.4286C139.401 71.8095 138.21 73 135.829 73C133.448 73 132.258 71.8095 132.258 69.4286V8.71429H117.972C115.591 8.71429 114.401 7.52381 114.401 5.14286C114.401 2.7619 115.591 1.57143 117.972 1.57143H153.686C156.067 1.57143 157.258 2.7619 157.258 5.14286ZM222.03 69.5C222.03 70.7381 221.696 71.619 221.03 72.1429C220.411 72.6667 219.506 72.9286 218.315 72.9286C216.696 72.9286 215.625 72.119 215.101 70.5L209.958 55.0714H184.03L178.887 70.5C178.363 72.119 177.291 72.9286 175.672 72.9286C174.482 72.9286 173.553 72.6667 172.887 72.1429C172.268 71.619 171.958 70.7381 171.958 69.5C171.958 69.0714 172.03 68.6429 172.172 68.2143L193.672 3.92857C193.911 3.11905 194.291 2.40476 194.815 1.78572C195.339 1.16667 196.077 0.857143 197.03 0.857143C197.982 0.857143 198.72 1.16667 199.244 1.78572C199.768 2.40476 200.149 3.11905 200.387 3.92857L221.815 68.2143C221.958 68.6429 222.03 69.0714 222.03 69.5ZM197.03 16.2857L186.458 47.7857H207.53L197.03 16.2857ZM242.93 69.4286C242.93 71.8095 241.74 73 239.359 73C236.978 73 235.787 71.8095 235.787 69.4286C235.787 67.0476 236.978 65.8571 239.359 65.8571C241.74 65.8571 242.93 67.0476 242.93 69.4286Z" fill="white"/>
<path d="M285.746 58.7143V30.1429H271.46C269.46 30.1429 267.769 30.8333 266.388 32.2143C265.007 33.5952 264.317 35.2857 264.317 37.2857V58.7143C264.317 60.7143 265.007 62.4048 266.388 63.7857C267.769 65.1667 269.46 65.8571 271.46 65.8571H278.603C280.603 65.8571 282.293 65.1667 283.674 63.7857C285.055 62.4048 285.746 60.7143 285.746 58.7143ZM289.246 68.2857C286.388 71.4286 282.841 73 278.603 73H271.46C269.46 73 267.579 72.6429 265.817 71.9286C264.103 71.1667 262.603 70.1429 261.317 68.8571C260.031 67.5714 259.007 66.0714 258.246 64.3571C257.531 62.5952 257.174 60.7143 257.174 58.7143V37.2857C257.174 35.3333 257.555 33.5 258.317 31.7857C259.079 30.0238 260.103 28.5 261.388 27.2143C262.674 25.9286 264.174 24.9048 265.888 24.1429C267.65 23.381 269.507 23 271.46 23H289.317C291.698 23 292.888 24.1905 292.888 26.5714V58.6429C292.888 60.6429 293.269 62.119 294.031 63.0714C294.793 64.0238 295.603 64.7857 296.46 65.3571C297.365 65.881 298.198 66.4048 298.96 66.9286C299.722 67.4048 300.103 68.1905 300.103 69.2857C300.103 70.2381 299.769 71.0952 299.103 71.8571C298.436 72.619 297.603 73 296.603 73C296.031 73 295.388 72.8333 294.674 72.5C293.96 72.1667 293.246 71.7619 292.531 71.2857C291.865 70.8095 291.222 70.3095 290.603 69.7857C290.031 69.2143 289.579 68.7143 289.246 68.2857ZM314.317 26.5714V69.4286C314.317 71.8095 313.126 73 310.746 73C308.365 73 307.174 71.8095 307.174 69.4286V26.5714C307.174 24.1905 308.365 23 310.746 23C313.126 23 314.317 24.1905 314.317 26.5714ZM307.174 5.14286C307.174 2.7619 308.365 1.57143 310.746 1.57143C313.126 1.57143 314.317 2.7619 314.317 5.14286C314.317 7.52381 313.126 8.71429 310.746 8.71429C308.365 8.71429 307.174 7.52381 307.174 5.14286Z" fill="url(#paint0_linear_307_15)"/>
<defs>
<linearGradient id="paint0_linear_307_15" x1="256.2" y1="73.4286" x2="336.238" y2="19.0459" gradientUnits="userSpaceOnUse">
<stop offset="0.033564" stop-color="#EF7834"/>
<stop offset="0.812606" stop-color="#F5E65E"/>
</linearGradient>
</defs>
</svg>
