<svg width="335" height="57" viewBox="0 0 335 57" fill="none" xmlns="http://www.w3.org/2000/svg">
<path d="M0.0400001 56L16 8.84C16.96 6.12 18.28 4.04 19.96 2.6C21.64 1.08 24.52 0.319998 28.6 0.319998C32.28 0.319998 35 0.999998 36.76 2.36C38.52 3.72 39.92 5.88 40.96 8.84L57.28 56H47.32L42.16 40.76H12.16L7.24 56H0.0400001ZM13.72 36.56H40.48L32.56 12.44C32.16 11.24 31.64 10.2 31 9.32C30.36 8.36 29.08 7.88 27.16 7.88C25 7.88 23.56 8.36 22.84 9.32C22.2 10.28 21.72 11.32 21.4 12.44L13.72 36.56ZM78.7206 0.799999V50.72H115.561V56H69.6006V4.76C69.6006 3.88 69.6406 3.16 69.7206 2.6C69.8006 2.04 70.0806 1.6 70.5606 1.28C71.0406 0.959998 71.8006 0.799999 72.8406 0.799999H78.7206ZM116.773 0.799999H171.373V6.2H148.693V52.04C148.693 53.56 148.493 54.6 148.093 55.16C147.773 55.72 146.893 56 145.453 56H139.573V6.2H116.773V0.799999ZM168.087 56L184.047 8.84C185.007 6.12 186.327 4.04 188.007 2.6C189.687 1.08 192.567 0.319998 196.647 0.319998C200.327 0.319998 203.047 0.999998 204.807 2.36C206.567 3.72 207.967 5.88 209.007 8.84L225.327 56H215.367L210.207 40.76H180.207L175.287 56H168.087ZM181.767 36.56H208.527L200.607 12.44C200.207 11.24 199.687 10.2 199.047 9.32C198.407 8.36 197.127 7.88 195.207 7.88C193.047 7.88 191.607 8.36 190.887 9.32C190.247 10.28 189.767 11.32 189.447 12.44L181.767 36.56ZM237.648 52.76C237.648 51.24 238.128 50.28 239.088 49.88C240.048 49.48 241.168 49.28 242.448 49.28C243.808 49.28 244.928 49.48 245.808 49.88C246.688 50.2 247.128 51.16 247.128 52.76C247.128 53.8 246.888 54.56 246.408 55.04C246.008 55.52 245.448 55.84 244.728 56C244.088 56.08 243.328 56.12 242.448 56.12C241.648 56.12 240.888 56.08 240.168 56C239.448 55.84 238.848 55.52 238.368 55.04C237.888 54.56 237.648 53.8 237.648 52.76Z" fill="white"/>
<path d="M255.509 56L271.469 8.84C272.429 6.12 273.749 4.04 275.429 2.6C277.109 1.08 279.989 0.319998 284.069 0.319998C287.749 0.319998 290.469 0.999998 292.229 2.36C293.989 3.72 295.389 5.88 296.429 8.84L312.749 56H302.789L297.629 40.76H267.629L262.709 56H255.509ZM269.189 36.56H295.949L288.029 12.44C287.629 11.24 287.109 10.2 286.469 9.32C285.829 8.36 284.549 7.88 282.629 7.88C280.469 7.88 279.029 8.36 278.309 9.32C277.669 10.28 277.189 11.32 276.869 12.44L269.189 36.56ZM325.069 56C325.069 47.44 325.069 38.88 325.069 30.32C325.069 21.76 325.069 13.2 325.069 4.64C325.069 3.76 325.109 3.08 325.189 2.6C325.349 2.04 325.629 1.6 326.029 1.28C326.509 0.959998 327.269 0.799999 328.309 0.799999H334.309V56H325.069Z" fill="url(#paint0_linear_220_23)"/>
<defs>
<linearGradient id="paint0_linear_220_23" x1="214.025" y1="44" x2="320.324" y2="116.502" gradientUnits="userSpaceOnUse">
<stop stop-color="#FF9C40"/>
<stop offset="0.913376" stop-color="#ECF02C"/>
</linearGradient>
</defs>
</svg>
