<svg width="111" height="26" viewBox="0 0 111 26" fill="none" xmlns="http://www.w3.org/2000/svg">
<path d="M18.175 24.775C18.175 25.2083 18.0583 25.5167 17.825 25.7C17.6083 25.8833 17.2917 25.975 16.875 25.975C16.3083 25.975 15.9333 25.6917 15.75 25.125L13.95 19.725H4.875L3.075 25.125C2.89167 25.6917 2.51667 25.975 1.95 25.975C1.53333 25.975 1.20833 25.8833 0.975 25.7C0.758333 25.5167 0.65 25.2083 0.65 24.775C0.65 24.625 0.675 24.475 0.725 24.325L8.25 1.825C8.33333 1.54167 8.46667 1.29167 8.65 1.075C8.83333 0.858334 9.09167 0.75 9.425 0.75C9.75833 0.75 10.0167 0.858334 10.2 1.075C10.3833 1.29167 10.5167 1.54167 10.6 1.825L18.1 24.325C18.15 24.475 18.175 24.625 18.175 24.775ZM9.425 6.15L5.725 17.175H13.1L9.425 6.15ZM35.4902 24.75C35.4902 25.5833 35.0736 26 34.2402 26H24.2402C23.4069 26 22.9902 25.5833 22.9902 24.75V2.25C22.9902 1.41667 23.4069 0.999999 24.2402 0.999999C25.0736 0.999999 25.4902 1.41667 25.4902 2.25V23.5H34.2402C35.0736 23.5 35.4902 23.9167 35.4902 24.75ZM55.4902 2.25C55.4902 3.08333 55.0736 3.5 54.2402 3.5H49.2402V24.75C49.2402 25.5833 48.8236 26 47.9902 26C47.1569 26 46.7402 25.5833 46.7402 24.75V3.5H41.7402C40.9069 3.5 40.4902 3.08333 40.4902 2.25C40.4902 1.41667 40.9069 0.999999 41.7402 0.999999H54.2402C55.0736 0.999999 55.4902 1.41667 55.4902 2.25ZM78.1604 24.775C78.1604 25.2083 78.0437 25.5167 77.8104 25.7C77.5937 25.8833 77.277 25.975 76.8604 25.975C76.2937 25.975 75.9187 25.6917 75.7354 25.125L73.9354 19.725H64.8604L63.0604 25.125C62.877 25.6917 62.502 25.975 61.9354 25.975C61.5187 25.975 61.1937 25.8833 60.9604 25.7C60.7437 25.5167 60.6354 25.2083 60.6354 24.775C60.6354 24.625 60.6604 24.475 60.7104 24.325L68.2354 1.825C68.3187 1.54167 68.452 1.29167 68.6354 1.075C68.8187 0.858334 69.077 0.75 69.4104 0.75C69.7437 0.75 70.002 0.858334 70.1854 1.075C70.3687 1.29167 70.502 1.54167 70.5854 1.825L78.0854 24.325C78.1354 24.475 78.1604 24.625 78.1604 24.775ZM69.4104 6.15L65.7104 17.175H73.0854L69.4104 6.15ZM85.4756 24.75C85.4756 25.5833 85.0589 26 84.2256 26C83.3923 26 82.9756 25.5833 82.9756 24.75C82.9756 23.9167 83.3923 23.5 84.2256 23.5C85.0589 23.5 85.4756 23.9167 85.4756 24.75Z" fill="#1C1C1C"/>
<path d="M100.461 21V11H95.4609C94.7609 11 94.1693 11.2417 93.6859 11.725C93.2026 12.2083 92.9609 12.8 92.9609 13.5V21C92.9609 21.7 93.2026 22.2917 93.6859 22.775C94.1693 23.2583 94.7609 23.5 95.4609 23.5H97.9609C98.6609 23.5 99.2526 23.2583 99.7359 22.775C100.219 22.2917 100.461 21.7 100.461 21ZM101.686 24.35C100.686 25.45 99.4443 26 97.9609 26H95.4609C94.7609 26 94.1026 25.875 93.4859 25.625C92.8859 25.3583 92.3609 25 91.9109 24.55C91.4609 24.1 91.1026 23.575 90.8359 22.975C90.5859 22.3583 90.4609 21.7 90.4609 21V13.5C90.4609 12.8167 90.5943 12.175 90.8609 11.575C91.1276 10.9583 91.4859 10.425 91.9359 9.975C92.3859 9.525 92.9109 9.16667 93.5109 8.9C94.1276 8.63333 94.7776 8.5 95.4609 8.5H101.711C102.544 8.5 102.961 8.91667 102.961 9.75V20.975C102.961 21.675 103.094 22.1917 103.361 22.525C103.628 22.8583 103.911 23.125 104.211 23.325C104.528 23.5083 104.819 23.6917 105.086 23.875C105.353 24.0417 105.486 24.3167 105.486 24.7C105.486 25.0333 105.369 25.3333 105.136 25.6C104.903 25.8667 104.611 26 104.261 26C104.061 26 103.836 25.9417 103.586 25.825C103.336 25.7083 103.086 25.5667 102.836 25.4C102.603 25.2333 102.378 25.0583 102.161 24.875C101.961 24.675 101.803 24.5 101.686 24.35ZM110.461 9.75V24.75C110.461 25.5833 110.044 26 109.211 26C108.378 26 107.961 25.5833 107.961 24.75V9.75C107.961 8.91667 108.378 8.5 109.211 8.5C110.044 8.5 110.461 8.91667 110.461 9.75ZM107.961 2.25C107.961 1.41667 108.378 0.999999 109.211 0.999999C110.044 0.999999 110.461 1.41667 110.461 2.25C110.461 3.08333 110.044 3.5 109.211 3.5C108.378 3.5 107.961 3.08333 107.961 2.25Z" fill="url(#paint0_linear_147_26)"/>
<defs>
<linearGradient id="paint0_linear_147_26" x1="94.5" y1="6.71429" x2="150.57" y2="19.6835" gradientUnits="userSpaceOnUse">
<stop stop-color="#F25B05"/>
<stop offset="0.335" stop-color="#FFC700"/>
</linearGradient>
</defs>
</svg>
