<svg width="122" height="105" viewBox="0 0 122 105" fill="none" xmlns="http://www.w3.org/2000/svg">
<g clip-path="url(#clip0_155_4)">
<path d="M108.58 10.48C104.068 10.48 101.768 12.685 99.7382 14.6305C97.8045 16.4835 96.1348 18.0841 92.7131 18.0841C89.2913 18.0841 87.6216 16.4835 85.6879 14.6305C83.6584 12.685 81.3578 10.48 76.8459 10.48C72.3364 10.48 70.0376 12.685 68.0086 14.631C66.0768 16.484 64.4082 18.0841 60.9895 18.0841C57.5689 18.0841 55.9004 16.484 53.9673 14.631C51.9384 12.685 49.6384 10.48 45.1277 10.48C40.6188 10.48 38.32 12.685 36.291 14.6305C34.3592 16.484 32.6912 18.0841 29.2719 18.0841C25.8543 18.0841 24.1863 16.484 22.2551 14.631C20.2267 12.6855 17.9285 10.48 13.4202 10.48C12.7465 10.48 12.2002 10.9492 12.2002 11.528C12.2002 12.1067 12.7465 12.576 13.4202 12.576C16.8377 12.576 18.5057 14.1761 20.437 16.0291C22.4654 17.9746 24.7636 20.1801 29.2719 20.1801C33.7813 20.1801 36.0801 17.9746 38.1091 16.0291C40.041 14.1761 41.7089 12.576 45.1277 12.576C48.5482 12.576 50.2174 14.1761 52.1504 16.0296C54.1794 17.9751 56.4794 20.1801 60.9895 20.1801C65.4989 20.1801 67.7978 17.9751 69.8267 16.0291C71.7586 14.1761 73.4272 12.576 76.8459 12.576C80.2676 12.576 81.9374 14.1766 83.871 16.0296C85.9006 17.9751 88.2012 20.1801 92.7131 20.1801C97.2249 20.1801 99.5255 17.9751 101.555 16.0296C103.489 14.1766 105.158 12.576 108.58 12.576C109.254 12.576 109.8 12.1067 109.8 11.528C109.8 10.9492 109.254 10.48 108.58 10.48Z" fill="black"/>
<path d="M108.58 35.1934C104.068 35.1934 101.768 37.3984 99.7382 39.3439C97.8045 41.1968 96.1348 42.7975 92.7131 42.7975C89.2913 42.7975 87.6216 41.1968 85.6879 39.3439C83.6584 37.3984 81.3578 35.1934 76.8459 35.1934C72.3364 35.1934 70.0376 37.3984 68.0086 39.3444C66.0768 41.1974 64.4082 42.7975 60.9895 42.7975C57.5689 42.7975 55.9004 41.1974 53.9673 39.3444C51.9384 37.3984 49.6384 35.1934 45.1277 35.1934C40.6188 35.1934 38.32 37.3984 36.291 39.3439C34.3592 41.1974 32.6912 42.7975 29.2719 42.7975C25.8543 42.7975 24.1863 41.1974 22.2551 39.3444C20.2267 37.3989 17.9285 35.1934 13.4202 35.1934C12.7465 35.1934 12.2002 35.6626 12.2002 36.2414C12.2002 36.8201 12.7465 37.2894 13.4202 37.2894C16.8377 37.2894 18.5057 38.8895 20.437 40.7424C22.4654 42.688 24.7636 44.8935 29.2719 44.8935C33.7813 44.8935 36.0801 42.688 38.1091 40.7424C40.041 38.8895 41.7089 37.2894 45.1277 37.2894C48.5482 37.2894 50.2174 38.8895 52.1504 40.7429C54.1794 42.6885 56.4794 44.8935 60.9895 44.8935C65.4989 44.8935 67.7978 42.6885 69.8267 40.7424C71.7586 38.8895 73.4272 37.2894 76.8459 37.2894C80.2676 37.2894 81.9374 38.89 83.871 40.7429C85.9006 42.6885 88.2012 44.8935 92.7131 44.8935C97.2249 44.8935 99.5255 42.6885 101.555 40.7429C103.489 38.89 105.158 37.2894 108.58 37.2894C109.254 37.2894 109.8 36.8201 109.8 36.2414C109.8 35.6626 109.254 35.1934 108.58 35.1934Z" fill="black"/>
<path d="M108.58 59.9065C104.068 59.9065 101.768 62.1115 99.7382 64.057C97.8045 65.91 96.1348 67.5106 92.7131 67.5106C89.2913 67.5106 87.6216 65.91 85.6879 64.057C83.6584 62.1115 81.3578 59.9065 76.8459 59.9065C72.3364 59.9065 70.0376 62.1115 68.0086 64.0576C66.0768 65.9105 64.4082 67.5106 60.9895 67.5106C57.5689 67.5106 55.9004 65.9105 53.9673 64.0576C51.9384 62.1115 49.6384 59.9065 45.1277 59.9065C40.6188 59.9065 38.32 62.1115 36.291 64.057C34.3592 65.9105 32.6912 67.5106 29.2719 67.5106C25.8543 67.5106 24.1863 65.9105 22.2551 64.0576C20.2267 62.112 17.9285 59.9065 13.4202 59.9065C12.7465 59.9065 12.2002 60.3757 12.2002 60.9545C12.2002 61.5332 12.7465 62.0025 13.4202 62.0025C16.8377 62.0025 18.5057 63.6026 20.437 65.4556C22.4654 67.4011 24.7636 69.6066 29.2719 69.6066C33.7813 69.6066 36.0801 67.4011 38.1091 65.4556C40.041 63.6026 41.7089 62.0025 45.1277 62.0025C48.5482 62.0025 50.2174 63.6026 52.1504 65.4561C54.1794 67.4016 56.4794 69.6066 60.9895 69.6066C65.4989 69.6066 67.7978 67.4016 69.8267 65.4556C71.7586 63.6026 73.4272 62.0025 76.8459 62.0025C80.2676 62.0025 81.9374 63.6032 83.871 65.4561C85.9006 67.4016 88.2012 69.6066 92.7131 69.6066C97.2249 69.6066 99.5255 67.4016 101.555 65.4561C103.489 63.6032 105.158 62.0025 108.58 62.0025C109.254 62.0025 109.8 61.5332 109.8 60.9545C109.8 60.3757 109.254 59.9065 108.58 59.9065Z" fill="black"/>
<path d="M108.58 84.6199C104.068 84.6199 101.768 86.8249 99.7382 88.7704C97.8045 90.6234 96.1348 92.224 92.7131 92.224C89.2913 92.224 87.6216 90.6234 85.6879 88.7704C83.6584 86.8249 81.3578 84.6199 76.8459 84.6199C72.3364 84.6199 70.0376 86.8249 68.0086 88.7709C66.0768 90.6239 64.4082 92.224 60.9895 92.224C57.5689 92.224 55.9004 90.6239 53.9673 88.7709C51.9384 86.8249 49.6384 84.6199 45.1277 84.6199C40.6188 84.6199 38.32 86.8249 36.291 88.7704C34.3592 90.6239 32.6912 92.224 29.2719 92.224C25.8543 92.224 24.1863 90.6239 22.2551 88.7709C20.2267 86.8254 17.9285 84.6199 13.4202 84.6199C12.7465 84.6199 12.2002 85.0891 12.2002 85.6679C12.2002 86.2466 12.7465 86.7159 13.4202 86.7159C16.8377 86.7159 18.5057 88.316 20.437 90.169C22.4654 92.1145 24.7636 94.32 29.2719 94.32C33.7813 94.32 36.0801 92.1145 38.1091 90.169C40.041 88.316 41.7089 86.7159 45.1277 86.7159C48.5482 86.7159 50.2174 88.316 52.1504 90.1695C54.1794 92.115 56.4794 94.32 60.9895 94.32C65.4989 94.32 67.7978 92.115 69.8267 90.169C71.7586 88.316 73.4272 86.7159 76.8459 86.7159C80.2676 86.7159 81.9374 88.3165 83.871 90.1695C85.9006 92.115 88.2012 94.32 92.7131 94.32C97.2249 94.32 99.5255 92.115 101.555 90.1695C103.489 88.3165 105.158 86.7159 108.58 86.7159C109.254 86.7159 109.8 86.2466 109.8 85.6679C109.8 85.0891 109.254 84.6199 108.58 84.6199Z" fill="black"/>
</g>
<defs>
<clipPath id="clip0_155_4">
<rect width="122" height="105" fill="white"/>
</clipPath>
</defs>
</svg>
